<mxfile host="app.diagrams.net" modified="2023-01-25T09:43:34.092Z" agent="5.0 (Windows NT 10.0; Win64; x64) AppleWebKit/537.36 (KHTML, like Gecko) Chrome/109.0.0.0 Safari/537.36" etag="DI9f55X-DHMioS6Cd9OD" version="20.8.11" type="github">
  <diagram id="C5RBs43oDa-KdzZeNtuy" name="Page-1">
    <mxGraphModel dx="832" dy="430" grid="1" gridSize="10" guides="1" tooltips="1" connect="1" arrows="1" fold="1" page="1" pageScale="1" pageWidth="827" pageHeight="1169" math="0" shadow="0">
      <root>
        <mxCell id="WIyWlLk6GJQsqaUBKTNV-0" />
        <mxCell id="WIyWlLk6GJQsqaUBKTNV-1" parent="WIyWlLk6GJQsqaUBKTNV-0" />
        <mxCell id="WIyWlLk6GJQsqaUBKTNV-2" value="" style="rounded=0;html=1;jettySize=auto;orthogonalLoop=1;fontSize=11;endArrow=classicThin;endFill=1;endSize=8;strokeWidth=1;shadow=0;labelBackgroundColor=none;edgeStyle=orthogonalEdgeStyle;" parent="WIyWlLk6GJQsqaUBKTNV-1" source="WIyWlLk6GJQsqaUBKTNV-3" edge="1">
          <mxGeometry relative="1" as="geometry">
            <mxPoint x="319" y="250" as="targetPoint" />
            <Array as="points">
              <mxPoint x="329" y="250" />
            </Array>
          </mxGeometry>
        </mxCell>
        <mxCell id="WIyWlLk6GJQsqaUBKTNV-3" value="Start" style="rounded=1;whiteSpace=wrap;html=1;fontSize=12;glass=0;strokeWidth=1;shadow=0;fillColor=#d5e8d4;strokeColor=#82b366;" parent="WIyWlLk6GJQsqaUBKTNV-1" vertex="1">
          <mxGeometry x="269" y="160" width="120" height="40" as="geometry" />
        </mxCell>
        <mxCell id="Kf52zj2Yry_CGXezNxRl-0" style="edgeStyle=orthogonalEdgeStyle;rounded=0;orthogonalLoop=1;jettySize=auto;html=1;exitX=0;exitY=0.5;exitDx=0;exitDy=0;endArrow=classicThin;endFill=1;entryX=0.5;entryY=0;entryDx=0;entryDy=0;" edge="1" parent="WIyWlLk6GJQsqaUBKTNV-1" source="WIyWlLk6GJQsqaUBKTNV-6" target="WIyWlLk6GJQsqaUBKTNV-12">
          <mxGeometry relative="1" as="geometry">
            <mxPoint x="209" y="300" as="targetPoint" />
          </mxGeometry>
        </mxCell>
        <mxCell id="WIyWlLk6GJQsqaUBKTNV-6" value="Height &amp;gt; 120cm" style="rhombus;whiteSpace=wrap;html=1;shadow=0;fontFamily=Helvetica;fontSize=12;align=center;strokeWidth=1;spacing=6;spacingTop=-4;" parent="WIyWlLk6GJQsqaUBKTNV-1" vertex="1">
          <mxGeometry x="259" y="250" width="140" height="80" as="geometry" />
        </mxCell>
        <mxCell id="Kf52zj2Yry_CGXezNxRl-11" style="edgeStyle=orthogonalEdgeStyle;rounded=0;orthogonalLoop=1;jettySize=auto;html=1;entryX=0.5;entryY=0;entryDx=0;entryDy=0;endArrow=classic;endFill=1;" edge="1" parent="WIyWlLk6GJQsqaUBKTNV-1" source="WIyWlLk6GJQsqaUBKTNV-7" target="WIyWlLk6GJQsqaUBKTNV-10">
          <mxGeometry relative="1" as="geometry" />
        </mxCell>
        <mxCell id="WIyWlLk6GJQsqaUBKTNV-7" value="Can ride" style="rounded=1;whiteSpace=wrap;html=1;fontSize=12;glass=0;strokeWidth=1;shadow=0;" parent="WIyWlLk6GJQsqaUBKTNV-1" vertex="1">
          <mxGeometry x="399" y="350" width="120" height="40" as="geometry" />
        </mxCell>
        <mxCell id="WIyWlLk6GJQsqaUBKTNV-10" value="Age" style="rhombus;whiteSpace=wrap;html=1;shadow=0;fontFamily=Helvetica;fontSize=12;align=center;strokeWidth=1;spacing=6;spacingTop=-4;" parent="WIyWlLk6GJQsqaUBKTNV-1" vertex="1">
          <mxGeometry x="404" y="450" width="110" height="70" as="geometry" />
        </mxCell>
        <mxCell id="Kf52zj2Yry_CGXezNxRl-13" style="edgeStyle=orthogonalEdgeStyle;rounded=0;orthogonalLoop=1;jettySize=auto;html=1;entryX=0;entryY=0.5;entryDx=0;entryDy=0;endArrow=classic;endFill=1;" edge="1" parent="WIyWlLk6GJQsqaUBKTNV-1" source="WIyWlLk6GJQsqaUBKTNV-11" target="Kf52zj2Yry_CGXezNxRl-12">
          <mxGeometry relative="1" as="geometry">
            <Array as="points">
              <mxPoint x="279" y="735" />
            </Array>
          </mxGeometry>
        </mxCell>
        <mxCell id="WIyWlLk6GJQsqaUBKTNV-11" value="$5" style="rounded=1;whiteSpace=wrap;html=1;fontSize=12;glass=0;strokeWidth=1;shadow=0;" parent="WIyWlLk6GJQsqaUBKTNV-1" vertex="1">
          <mxGeometry x="223" y="570" width="120" height="40" as="geometry" />
        </mxCell>
        <mxCell id="WIyWlLk6GJQsqaUBKTNV-12" value="Can&#39;t Ride" style="rounded=1;whiteSpace=wrap;html=1;fontSize=12;glass=0;strokeWidth=1;shadow=0;" parent="WIyWlLk6GJQsqaUBKTNV-1" vertex="1">
          <mxGeometry x="139" y="350" width="120" height="40" as="geometry" />
        </mxCell>
        <mxCell id="Kf52zj2Yry_CGXezNxRl-14" style="edgeStyle=orthogonalEdgeStyle;rounded=0;orthogonalLoop=1;jettySize=auto;html=1;entryX=0.5;entryY=0;entryDx=0;entryDy=0;endArrow=classic;endFill=1;" edge="1" parent="WIyWlLk6GJQsqaUBKTNV-1" source="Kf52zj2Yry_CGXezNxRl-2" target="Kf52zj2Yry_CGXezNxRl-12">
          <mxGeometry relative="1" as="geometry" />
        </mxCell>
        <mxCell id="Kf52zj2Yry_CGXezNxRl-2" value="$7" style="rounded=1;whiteSpace=wrap;html=1;fontSize=12;glass=0;strokeWidth=1;shadow=0;" vertex="1" parent="WIyWlLk6GJQsqaUBKTNV-1">
          <mxGeometry x="399" y="570" width="120" height="40" as="geometry" />
        </mxCell>
        <mxCell id="Kf52zj2Yry_CGXezNxRl-16" style="edgeStyle=orthogonalEdgeStyle;rounded=0;orthogonalLoop=1;jettySize=auto;html=1;entryX=1;entryY=0.5;entryDx=0;entryDy=0;endArrow=classic;endFill=1;" edge="1" parent="WIyWlLk6GJQsqaUBKTNV-1" source="Kf52zj2Yry_CGXezNxRl-3" target="Kf52zj2Yry_CGXezNxRl-12">
          <mxGeometry relative="1" as="geometry">
            <Array as="points">
              <mxPoint x="629" y="735" />
            </Array>
          </mxGeometry>
        </mxCell>
        <mxCell id="Kf52zj2Yry_CGXezNxRl-3" value="$12" style="rounded=1;whiteSpace=wrap;html=1;fontSize=12;glass=0;strokeWidth=1;shadow=0;" vertex="1" parent="WIyWlLk6GJQsqaUBKTNV-1">
          <mxGeometry x="569" y="570" width="120" height="40" as="geometry" />
        </mxCell>
        <mxCell id="Kf52zj2Yry_CGXezNxRl-10" value="" style="group" vertex="1" connectable="0" parent="WIyWlLk6GJQsqaUBKTNV-1">
          <mxGeometry x="439" y="270" width="60" height="30" as="geometry" />
        </mxCell>
        <mxCell id="WIyWlLk6GJQsqaUBKTNV-5" value="No" style="edgeStyle=orthogonalEdgeStyle;rounded=0;html=1;jettySize=auto;orthogonalLoop=1;fontSize=11;endArrow=classic;endFill=1;endSize=8;strokeWidth=1;shadow=0;labelBackgroundColor=none;" parent="Kf52zj2Yry_CGXezNxRl-10" source="WIyWlLk6GJQsqaUBKTNV-6" target="WIyWlLk6GJQsqaUBKTNV-7" edge="1">
          <mxGeometry x="-1" y="210" relative="1" as="geometry">
            <mxPoint x="-210" y="200" as="offset" />
            <Array as="points">
              <mxPoint x="20" y="20" />
            </Array>
          </mxGeometry>
        </mxCell>
        <mxCell id="Kf52zj2Yry_CGXezNxRl-9" value="Yes" style="text;strokeColor=none;align=center;fillColor=none;html=1;verticalAlign=middle;whiteSpace=wrap;rounded=0;" vertex="1" parent="Kf52zj2Yry_CGXezNxRl-10">
          <mxGeometry width="60" height="30" as="geometry" />
        </mxCell>
        <mxCell id="Kf52zj2Yry_CGXezNxRl-12" value="Pic?" style="rhombus;whiteSpace=wrap;html=1;shadow=0;fontFamily=Helvetica;fontSize=12;align=center;strokeWidth=1;spacing=6;spacingTop=-4;" vertex="1" parent="WIyWlLk6GJQsqaUBKTNV-1">
          <mxGeometry x="404" y="700" width="110" height="70" as="geometry" />
        </mxCell>
        <mxCell id="Kf52zj2Yry_CGXezNxRl-17" value="&lt;font style=&quot;font-size: 13px;&quot;&gt;+ $ 0.00&lt;/font&gt;" style="rounded=1;whiteSpace=wrap;html=1;fontSize=12;glass=0;strokeWidth=1;shadow=0;" vertex="1" parent="WIyWlLk6GJQsqaUBKTNV-1">
          <mxGeometry x="309" y="830" width="120" height="40" as="geometry" />
        </mxCell>
        <mxCell id="Kf52zj2Yry_CGXezNxRl-18" value="+ $ 3.00" style="rounded=1;whiteSpace=wrap;html=1;fontSize=12;glass=0;strokeWidth=1;shadow=0;" vertex="1" parent="WIyWlLk6GJQsqaUBKTNV-1">
          <mxGeometry x="509" y="830" width="120" height="40" as="geometry" />
        </mxCell>
        <mxCell id="Kf52zj2Yry_CGXezNxRl-27" value="" style="group" vertex="1" connectable="0" parent="WIyWlLk6GJQsqaUBKTNV-1">
          <mxGeometry x="359" y="770" width="60" height="30" as="geometry" />
        </mxCell>
        <mxCell id="Kf52zj2Yry_CGXezNxRl-19" style="edgeStyle=orthogonalEdgeStyle;rounded=0;orthogonalLoop=1;jettySize=auto;html=1;entryX=0.592;entryY=-0.05;entryDx=0;entryDy=0;entryPerimeter=0;endArrow=classic;endFill=1;" edge="1" parent="Kf52zj2Yry_CGXezNxRl-27" source="Kf52zj2Yry_CGXezNxRl-12" target="Kf52zj2Yry_CGXezNxRl-17">
          <mxGeometry relative="1" as="geometry" />
        </mxCell>
        <mxCell id="Kf52zj2Yry_CGXezNxRl-25" value="no" style="text;strokeColor=none;align=center;fillColor=none;html=1;verticalAlign=middle;whiteSpace=wrap;rounded=0;" vertex="1" parent="Kf52zj2Yry_CGXezNxRl-27">
          <mxGeometry width="60" height="30" as="geometry" />
        </mxCell>
        <mxCell id="Kf52zj2Yry_CGXezNxRl-28" value="" style="group" vertex="1" connectable="0" parent="WIyWlLk6GJQsqaUBKTNV-1">
          <mxGeometry x="509" y="770" width="60" height="30" as="geometry" />
        </mxCell>
        <mxCell id="Kf52zj2Yry_CGXezNxRl-20" style="edgeStyle=orthogonalEdgeStyle;rounded=0;orthogonalLoop=1;jettySize=auto;html=1;entryX=0.35;entryY=-0.1;entryDx=0;entryDy=0;entryPerimeter=0;endArrow=classic;endFill=1;" edge="1" parent="Kf52zj2Yry_CGXezNxRl-28" source="Kf52zj2Yry_CGXezNxRl-12" target="Kf52zj2Yry_CGXezNxRl-18">
          <mxGeometry relative="1" as="geometry" />
        </mxCell>
        <mxCell id="Kf52zj2Yry_CGXezNxRl-24" value="Yes" style="text;strokeColor=none;align=center;fillColor=none;html=1;verticalAlign=middle;whiteSpace=wrap;rounded=0;" vertex="1" parent="Kf52zj2Yry_CGXezNxRl-28">
          <mxGeometry width="60" height="30" as="geometry" />
        </mxCell>
        <mxCell id="Kf52zj2Yry_CGXezNxRl-29" value="" style="group" vertex="1" connectable="0" parent="WIyWlLk6GJQsqaUBKTNV-1">
          <mxGeometry x="469" y="530" width="60" height="30" as="geometry" />
        </mxCell>
        <mxCell id="Kf52zj2Yry_CGXezNxRl-5" value="" style="edgeStyle=orthogonalEdgeStyle;rounded=0;orthogonalLoop=1;jettySize=auto;html=1;endArrow=classicThin;endFill=1;" edge="1" parent="Kf52zj2Yry_CGXezNxRl-29" source="WIyWlLk6GJQsqaUBKTNV-10" target="Kf52zj2Yry_CGXezNxRl-2">
          <mxGeometry relative="1" as="geometry" />
        </mxCell>
        <mxCell id="Kf52zj2Yry_CGXezNxRl-22" value="12 - 18" style="text;strokeColor=none;align=center;fillColor=none;html=1;verticalAlign=middle;whiteSpace=wrap;rounded=0;" vertex="1" parent="Kf52zj2Yry_CGXezNxRl-29">
          <mxGeometry width="60" height="30" as="geometry" />
        </mxCell>
        <mxCell id="Kf52zj2Yry_CGXezNxRl-30" value="" style="group" vertex="1" connectable="0" parent="WIyWlLk6GJQsqaUBKTNV-1">
          <mxGeometry x="549" y="450" width="60" height="30" as="geometry" />
        </mxCell>
        <mxCell id="Kf52zj2Yry_CGXezNxRl-6" style="edgeStyle=orthogonalEdgeStyle;rounded=0;orthogonalLoop=1;jettySize=auto;html=1;entryX=0.5;entryY=0;entryDx=0;entryDy=0;endArrow=classic;endFill=1;" edge="1" parent="Kf52zj2Yry_CGXezNxRl-30" source="WIyWlLk6GJQsqaUBKTNV-10" target="Kf52zj2Yry_CGXezNxRl-3">
          <mxGeometry relative="1" as="geometry" />
        </mxCell>
        <mxCell id="Kf52zj2Yry_CGXezNxRl-23" value="Over 18" style="text;strokeColor=none;align=center;fillColor=none;html=1;verticalAlign=middle;whiteSpace=wrap;rounded=0;" vertex="1" parent="Kf52zj2Yry_CGXezNxRl-30">
          <mxGeometry width="60" height="30" as="geometry" />
        </mxCell>
        <mxCell id="Kf52zj2Yry_CGXezNxRl-31" value="" style="group" vertex="1" connectable="0" parent="WIyWlLk6GJQsqaUBKTNV-1">
          <mxGeometry x="309" y="450" width="60" height="30" as="geometry" />
        </mxCell>
        <mxCell id="Kf52zj2Yry_CGXezNxRl-8" style="edgeStyle=orthogonalEdgeStyle;rounded=0;orthogonalLoop=1;jettySize=auto;html=1;entryX=0.575;entryY=-0.075;entryDx=0;entryDy=0;entryPerimeter=0;endArrow=classic;endFill=1;" edge="1" parent="Kf52zj2Yry_CGXezNxRl-31" source="WIyWlLk6GJQsqaUBKTNV-10" target="WIyWlLk6GJQsqaUBKTNV-11">
          <mxGeometry relative="1" as="geometry" />
        </mxCell>
        <mxCell id="Kf52zj2Yry_CGXezNxRl-21" value="Under 12" style="text;strokeColor=none;align=center;fillColor=none;html=1;verticalAlign=middle;whiteSpace=wrap;rounded=0;" vertex="1" parent="Kf52zj2Yry_CGXezNxRl-31">
          <mxGeometry width="60" height="30" as="geometry" />
        </mxCell>
      </root>
    </mxGraphModel>
  </diagram>
</mxfile>
